Coordinates
version=1
nRows=9
nColumns=24
inDegrees=yes

Units are S.I. units (second, meters, Newtons, ...)
Angles are in degrees.

endheader
time	pelvis_tilt	pelvis_list	pelvis_rotation	pelvis_tx	pelvis_ty	pelvis_tz	hip_flexion_r	hip_adduction_r	hip_rotation_r	knee_angle_r	ankle_angle_r	subtalar_angle_r	mtp_angle_r	hip_flexion_l	hip_adduction_l	hip_rotation_l	knee_angle_l	ankle_angle_l	subtalar_angle_l	mtp_angle_l	lumbar_extension	lumbar_bending	lumbar_rotation
      1.11733333	      2.89288491	     -6.07816482	      8.75955322	      0.52860357	      1.02970775	      0.28946788	      7.39123880	     11.58284685	     -4.71818360	    -16.37735983	      6.26048773	    -12.99180896	      3.86261401	     13.35099214	     -8.06543736	      4.94502893	    -58.85319208	     12.62213883	      5.20706255	      6.36396982	     -1.53623043	      4.07757763	     -5.32016798
      1.12150000	      2.90712461	     -5.94336771	      8.54192790	      0.53304103	      1.03061605	      0.29016745	      6.84294877	     11.53585164	     -4.51402526	    -15.93293010	      6.23470675	    -12.86961079	      3.81042266	     13.78102453	     -7.87774920	      4.68336103	    -58.22175296	     12.80527413	      4.54956414	      6.25491712	     -1.63451631	      3.91313743	     -4.95916235
      1.12566667	      2.89273522	     -5.80186670	      8.32106882	      0.53746446	      1.03144629	      0.29088127	      6.33067616	     11.47720874	     -4.28344196	    -15.50436023	      6.27587844	    -12.75187973	      3.78801861	     14.23220259	     -7.68396979	      4.40939966	    -57.55347441	     12.92334452	      3.84066219	      6.18521195	     -1.72273199	      3.72580411	     -4.76169580
      1.12983333	      2.89221352	     -5.63936061	      8.09830400	      0.54188323	      1.03228828	      0.29156006	      5.80687050	     11.38757350	     -4.07725405	    -15.08522230	      6.27911350	    -12.61961744	      3.76065363	     14.64130469	     -7.46780681	      4.12968537	    -56.82553868	     13.01067066	      3.11948251	      6.08269970	     -1.81349358	      3.54221893	     -4.47069560
      1.13400000	      2.88570729	     -5.49342752	      7.87442606	      0.54628406	      1.03305753	      0.29226810	      5.29666437	     11.31571935	     -3.85605719	    -14.67184441	      6.31859896	    -12.49748896	      3.74191125	     15.05744143	     -7.28677230	      3.82073717	    -56.07659156	     13.06948566	      2.40254028	      5.98503028	     -1.90142690	      3.33734444	     -4.22960042
      1.13816667	      2.84732509	     -5.33327340	      7.62477560	      0.55067980	      1.03375205	      0.29299619	      4.83811940	     11.21829211	     -3.62414653	    -14.30206903	      6.34459794	    -12.36654147	      3.72988034	     15.48354147	     -7.09339237	      3.48099078	    -55.28367634	     13.13946626	      1.71374675	      5.90146187	     -1.97679321	      3.13957772	     -4.02781981
      1.14233333	      2.84651753	     -5.18159157	      7.41943062	      0.55510214	      1.03446597	      0.29364504	      4.32479243	     11.12908633	     -3.43711501	    -13.89029422	      6.38635165	    -12.25073122	      3.71660407	     15.86237117	     -6.90684352	      3.17972300	    -54.44475390	     13.09981744	      1.00239652	      5.78572760	     -2.03693931	      2.93928442	     -3.75070848
      1.14650000	      2.81278487	     -5.02703349	      7.20420183	      0.55949029	      1.03509407	      0.29429487	      3.85883099	     11.02895644	     -3.22294104	    -13.49987747	      6.40469508	    -12.11269717	      3.70060557	     16.26472256	     -6.71061953	      2.88145927	    -53.57437597	     13.06136512	      0.32053986	      5.61718911	     -2.10649016	      2.73751163	     -3.45438924
      1.15066667	      2.77534340	     -4.87549061	      6.97879465	      0.56388502	      1.03565519	      0.29495393	      3.40760679	     10.92889273	     -3.00715934	    -13.13185867	      6.45531103	    -11.99862528	      3.68880464	     16.65663691	     -6.53165267	      2.54802985	    -52.67105962	     13.00476460	     -0.32630915	      5.44182712	     -2.14759226	      2.54119311	     -3.21735582
